PathFileType	4	(x/y/z)	S05_M20_T11
DataRate	CameraRate	NumFrames	NumMarkers	Units	OrigDataRate	OrigDataStartFrame	OrigNumFrames
240	240	8	50	mm	240	447	510
Frame#	Time	Sternum			R.Acromium			L.Acromium			Top.Head			R.ASIS			L.ASIS			R.PSIS			L.PSIS			R.Great.Tro			L.Great.Tro			R.Iliac.Crest			L.Iliac.Crest			V.Sacral			R.Thigh.Upper.Post			R.Thigh.Lower.Ant			R.Thigh.Lower.Post			R.Thigh.Upper.Ant			R.Knee.Lat			R.Knee.Med			R.Shank.Upper.Post			R.Shank.Lower.Ant			R.Shank.Lower.Post			R.Shank.Upper.Ant			R.Ankle.Lat			R.Ankle.Med			R.Heel.Upper			R.Heel.Med			R.Heel.Lat			R.Toe.Lat			R.Toe.Med			R.Toe.Tip			L.Thigh.Upper.Post			L.Thigh.Lower.Ant			L.Thigh.Lower.Post			L.Thigh.Upper.Ant			L.Knee.Lat			L.Shank.Upper.Post			L.Shank.Lower.Ant			L.Shank.Lower.Post			L.Shank.Upper.Ant			L.Ankle.Lat			L.Ankle.Med			L.Heel.Upper			L.Heel.Med			L.Heel.Lat			L.Toe.Lat			L.Toe.Med			L.Toe.Tip			Cervical.Spine			Back			
		X1	Y1	Z1	X2	Y2	Z2	X3	Y3	Z3	X4	Y4	Z4	X5	Y5	Z5	X6	Y6	Z6	X7	Y7	Z7	X8	Y8	Z8	X9	Y9	Z9	X10	Y10	Z10	X11	Y11	Z11	X12	Y12	Z12	X13	Y13	Z13	X14	Y14	Z14	X15	Y15	Z15	X16	Y16	Z16	X17	Y17	Z17	X18	Y18	Z18	X19	Y19	Z19	X20	Y20	Z20	X21	Y21	Z21	X22	Y22	Z22	X23	Y23	Z23	X24	Y24	Z24	X25	Y25	Z25	X26	Y26	Z26	X27	Y27	Z27	X28	Y28	Z28	X29	Y29	Z29	X30	Y30	Z30	X31	Y31	Z31	X32	Y32	Z32	X33	Y33	Z33	X34	Y34	Z34	X35	Y35	Z35	X36	Y36	Z36	X37	Y37	Z37	X38	Y38	Z38	X39	Y39	Z39	X40	Y40	Z40	X41	Y41	Z41	X42	Y42	Z42	X43	Y43	Z43	X44	Y44	Z44	X45	Y45	Z45	X46	Y46	Z46	X47	Y47	Z47	X48	Y48	Z48	X49	Y49	Z49	X50	Y50	Z50	

447	1.8583	1604.4	1263.7	315.2	1510	1528.5	460.48	1521.7	1537.7	129.51	1510.8	1825.2	282.23	1536.1	1014.8	441.9	1551.6	1016.7	192.5	1340.2	1028.6	348.24	1347	1035.7	256.59	1463.5	932.36	507.66	1459.9	940.8	114.27	1444.8	1098.1	477.58	1464.4	1093.5	140.92	1329.1	996.85	312.1	1615.4	743.51	507.49	1688.4	701.14	449.02	1641.8	658.86	485.81	1657.3	783.22	469.73	1669.3	571.5	463.72	1683.9	560.11	330.26	1655.3	321.69	446.97	1731.7	274.77	456.05	1677.4	249.14	432.62	1710.3	348.57	468.55	1745.8	166.19	438.41	1769.3	202.84	356.17	1716.6	92.571	373.34	1743.4	70.157	345.67	1732.3	68.378	409.9	1878.8	125.57	482.23	1917.5	157.98	371.77	1959.5	199.74	424.83	1430.1	701.72	134.31	1499.2	619.75	163.31	1427.8	608.01	155.87	1508.9	707.84	140.46	1423.9	516.55	167.5	1323.6	328.62	175.2	1379.8	259.17	186.56	1309.4	260.24	199.2	1390.7	327.55	170.07	1315.3	123.24	215.05	1346.7	136.29	302.31	1247.7	76.603	271.54	1257.9	50.114	302.86	1247.9	50.346	241.82	1428.6	38.311	184.3	1454.8	45.453	303.76	1518.4	50.907	249.64	1463.8	1569.8	299.03	1342	1296.3	295.78
448	1.8625	1609.5	1262.9	315.1	1515.3	1527.6	460.8	1526.8	1537.2	129.84	1515.9	1824.4	282.96	1541.6	1014	441.66	1556.5	1016	192.21	1345.5	1028	348.49	1352	1035.2	256.84	1469	931.42	507.5	1464.3	940.4	114.28	1450.3	1097.2	477.64	1469.2	1093	140.91	1334.2	996.3	312.33	1620	741.91	507.05	1692.7	699.27	448.34	1646	657.17	485.29	1662	781.46	469.16	1673.8	570.12	463.03	1688.2	558.69	329.21	1665.9	320.25	447.09	1743.5	275.41	456.42	1689.9	248.25	432.99	1720.1	348.66	468.61	1760.8	167.01	439.11	1783.4	204.12	356.87	1733.7	92.415	374.27	1761.1	70.686	346.65	1749.9	68.8	410.91	1894.8	130.1	483.3	1932.8	163.35	372.84	1973.5	206.41	425.89	1433.1	701.56	134.22	1501.9	619.24	163.16	1430.4	607.87	155.8	1512	707.27	140.24	1425.9	516.37	167.41	1324.7	328.93	175.27	1380.6	259.17	186.52	1310.2	260.61	199.34	1391.8	327.53	170.05	1315.4	123.44	215.19	1347	136.43	302.4	1247.9	76.876	271.71	1258	50.377	303.03	1247.9	50.631	241.99	1428.6	38.314	184.32	1454.9	45.412	303.77	1518.5	50.787	249.6	1469	1569.1	299.31	1347.1	1295.7	296.09
449	1.8667	1614.6	1262.1	315.01	1520.6	1526.7	461.13	1531.8	1536.6	130.19	1521.1	1823.7	283.71	1547.1	1013.1	441.41	1561.4	1015.4	191.92	1350.7	1027.3	348.75	1357	1034.7	257.1	1474.5	930.44	507.34	1468.7	939.97	114.29	1455.8	1096.3	477.7	1473.9	1092.4	140.91	1339.3	995.71	312.57	1624.7	740.26	506.6	1697	697.34	447.67	1650.3	655.42	484.78	1666.6	779.65	468.59	1678.2	568.71	462.37	1692.5	557.23	328.2	1676.5	318.93	447.23	1755.2	276.16	456.78	1702.4	247.52	433.38	1729.9	348.82	468.68	1775.5	168.03	439.8	1797.3	205.57	357.54	1750.6	92.552	375.15	1778.6	71.509	347.59	1767.3	69.503	411.87	1910.5	134.74	484.32	1947.8	168.81	373.86	1987.2	213.11	426.91	1436.2	701.4	134.13	1504.5	618.71	163	1432.9	607.72	155.73	1515	706.68	140.03	1427.9	516.19	167.32	1325.9	329.24	175.33	1381.3	259.18	186.48	1311	260.98	199.47	1392.9	327.51	170.02	1315.5	123.63	215.32	1347.4	136.57	302.49	1248	77.161	271.88	1258.2	50.651	303.2	1248	50.926	242.15	1428.6	38.317	184.34	1455	45.372	303.77	1518.6	50.667	249.56	1474.2	1568.3	299.59	1352.2	1295	296.41
450	1.8708	1619.8	1261.3	314.93	1526	1525.7	461.48	1536.9	1535.9	130.56	1526.3	1822.9	284.46	1552.6	1012.2	441.17	1566.3	1014.7	191.63	1356	1026.7	349.02	1362.1	1034.2	257.37	1480	929.41	507.18	1473.1	939.52	114.3	1461.4	1095.3	477.78	1478.7	1091.8	140.91	1344.4	995.11	312.82	1629.3	738.57	506.15	1701.3	695.36	447.01	1654.6	653.63	484.29	1671.3	777.79	468	1682.7	567.27	461.75	1696.8	555.75	327.23	1686.9	317.74	447.37	1766.7	277.03	457.14	1714.7	246.95	433.78	1739.5	349.05	468.76	1790.1	169.24	440.47	1811	207.18	358.21	1767.2	92.968	376.01	1795.7	72.608	348.5	1784.4	70.469	412.79	1925.9	139.48	485.3	1962.4	174.35	374.84	2000.6	219.8	427.88	1439.2	701.22	134.04	1507.2	618.16	162.84	1435.5	607.56	155.66	1518.1	706.08	139.81	1429.9	516	167.22	1327	329.55	175.39	1382.1	259.19	186.43	1311.8	261.35	199.58	1394.1	327.49	169.98	1315.7	123.83	215.45	1347.8	136.72	302.57	1248.1	77.458	272.04	1258.3	50.938	303.36	1248.1	51.229	242.3	1428.6	38.317	184.36	1455.1	45.335	303.78	1518.6	50.547	249.52	1479.5	1567.6	299.89	1357.4	1294.2	296.77
451	1.875	1624.9	1260.4	314.86	1531.3	1524.7	461.84	1542	1535.3	130.94	1531.4	1822.1	285.24	1558.1	1011.2	440.92	1571.2	1013.9	191.33	1361.3	1026	349.31	1367.1	1033.6	257.64	1485.6	928.34	507.01	1477.6	939.04	114.31	1467	1094.3	477.86	1483.5	1091.2	140.92	1349.6	994.49	313.06	1633.9	736.85	505.7	1705.6	693.35	446.35	1658.8	651.81	483.81	1676	775.9	467.41	1687.2	565.83	461.16	1701.2	554.25	326.31	1697.3	316.66	447.52	1778	277.99	457.5	1726.8	246.53	434.18	1749	349.36	468.85	1804.3	170.62	441.12	1824.4	208.94	358.85	1783.4	93.644	376.83	1812.5	73.96	349.36	1801.2	71.678	413.67	1940.9	144.28	486.23	1976.7	179.93	375.75	2013.7	226.45	428.81	1442.3	701.03	133.94	1509.9	617.6	162.67	1438.2	607.39	155.58	1521.2	705.46	139.59	1431.9	515.8	167.13	1328.1	329.85	175.43	1382.9	259.2	186.37	1312.7	261.73	199.69	1395.2	327.46	169.94	1315.8	124.03	215.57	1348.2	136.87	302.64	1248.3	77.767	272.18	1258.4	51.238	303.5	1248.2	51.541	242.44	1428.6	38.315	184.38	1455.2	45.301	303.78	1518.7	50.428	249.48	1484.8	1566.8	300.21	1362.5	1293.4	297.14
452	1.8792	1630.1	1259.5	314.79	1536.7	1523.7	462.22	1547.1	1534.6	131.33	1536.6	1821.2	286.02	1563.7	1010.2	440.67	1576.1	1013.1	191.04	1366.7	1025.2	349.6	1372.2	1033	257.93	1491.1	927.24	506.85	1482.1	938.55	114.32	1472.7	1093.3	477.94	1488.3	1090.6	140.94	1354.7	993.85	313.31	1638.6	735.1	505.25	1709.9	691.32	445.69	1663.1	649.96	483.33	1680.6	773.98	466.81	1691.7	564.38	460.61	1705.5	552.76	325.43	1707.5	315.7	447.68	1789.2	279.05	457.87	1738.8	246.25	434.6	1758.5	349.73	468.94	1818.3	172.15	441.75	1837.6	210.82	359.48	1799.4	94.557	377.61	1829	75.54	350.19	1817.6	73.104	414.51	1955.6	149.11	487.12	1990.7	185.52	376.62	2026.4	233.04	429.7	1445.4	700.82	133.85	1512.6	617.03	162.5	1440.8	607.2	155.5	1524.4	704.82	139.37	1433.9	515.59	167.02	1329.3	330.16	175.46	1383.7	259.22	186.31	1313.5	262.1	199.78	1396.4	327.43	169.89	1315.9	124.24	215.67	1348.5	137.03	302.7	1248.4	78.088	272.31	1258.5	51.55	303.63	1248.2	51.862	242.57	1428.6	38.311	184.39	1455.3	45.27	303.78	1518.8	50.308	249.44	1490.1	1566	300.55	1367.7	1292.6	297.53
453	1.8833	1635.3	1258.6	314.73	1542	1522.7	462.6	1552.2	1533.9	131.74	1541.8	1820.4	286.83	1569.2	1009.2	440.41	1581.1	1012.4	190.75	1372	1024.5	349.9	1377.3	1032.4	258.21	1496.7	926.1	506.69	1486.6	938.04	114.33	1478.3	1092.2	478.04	1493.1	1090	140.97	1359.9	993.2	313.56	1643.3	733.34	504.79	1714.3	689.29	445.04	1667.5	648.12	482.87	1685.3	772.06	466.2	1696.3	562.95	460.08	1710	551.28	324.61	1717.7	314.85	447.85	1800.2	280.18	458.22	1750.6	246.11	435.03	1767.8	350.17	469.05	1832.1	173.81	442.37	1850.5	212.82	360.09	1815	95.685	378.37	1845.1	77.321	350.98	1833.6	74.722	415.31	1970	153.94	487.95	2004.2	191.09	377.42	2038.8	239.53	430.53	1448.5	700.6	133.75	1515.3	616.44	162.33	1443.4	607.01	155.42	1527.5	704.15	139.14	1436	515.38	166.91	1330.5	330.46	175.48	1384.5	259.23	186.24	1314.4	262.48	199.85	1397.5	327.4	169.83	1316.1	124.46	215.76	1348.9	137.19	302.74	1248.5	78.42	272.42	1258.6	51.875	303.74	1248.3	52.192	242.68	1428.7	38.304	184.41	1455.3	45.243	303.78	1518.8	50.188	249.39	1495.4	1565.1	300.91	1372.8	1291.8	297.95
454	1.8875	1640.5	1257.6	314.68	1547.4	1521.6	463.01	1557.3	1533.2	132.16	1547	1819.5	287.64	1574.8	1008.1	440.16	1586.1	1011.5	190.47	1377.4	1023.7	350.21	1382.3	1031.8	258.51	1502.3	924.93	506.54	1491.1	937.51	114.34	1484	1091.1	478.14	1497.9	1089.3	141	1365	992.53	313.81	1648	731.59	504.34	1718.7	687.28	444.38	1671.9	646.28	482.41	1690	770.16	465.57	1701	561.55	459.59	1714.5	549.83	323.83	1727.7	314.12	448.03	1811	281.39	458.58	1762.1	246.1	435.47	1776.9	350.66	469.16	1845.5	175.58	442.97	1863.1	214.9	360.68	1830.3	97	379.1	1860.7	79.271	351.74	1849.3	76.504	416.07	1983.9	158.74	488.73	2017.4	196.61	378.17	2050.9	245.89	431.3	1451.6	700.37	133.64	1518	615.83	162.15	1446.1	606.8	155.32	1530.7	703.48	138.91	1438.1	515.15	166.8	1331.7	330.75	175.49	1385.3	259.25	186.15	1315.3	262.85	199.91	1398.7	327.37	169.76	1316.2	124.68	215.83	1349.3	137.36	302.78	1248.7	78.763	272.52	1258.7	52.213	303.84	1248.4	52.529	242.78	1428.7	38.294	184.41	1455.4	45.221	303.77	1518.9	50.067	249.35	1500.7	1564.2	301.3	1378.1	1291	298.38
